<svg width="352.95" height="82.38507253119411" viewBox="-4 0 373.65517241379314 87.21804357831475" class="looka-1j8o68f"><defs id="SvgjsDefs1817"></defs><g id="SvgjsG1818" featurekey="HKaMnE-0" transform="matrix(0.9549767092656518,0,0,0.9549767092656518,-21.9626359866854,-0.6398136741252145)" fill="#ffffff"><path xmlns="http://www.w3.org/2000/svg" d="M49.831,14.185c-11.014,0-19.939,7.899-19.939,17.645s2.393,43.563,20.334,43.563c17.546,0,19.539-33.818,19.539-43.563  S60.841,14.185,49.831,14.185z M49.703,38.537c-8.658,0-15.674-4.655-15.674-10.398c0-5.739,7.016-10.396,15.674-10.396  s15.678,4.657,15.678,10.396C65.381,33.882,58.36,38.537,49.703,38.537z"></path><rect xmlns="http://www.w3.org/2000/svg" x="38.169" y="10.956" width="1.392" height="6.886"></rect><path xmlns="http://www.w3.org/2000/svg" d="M40.891,10.042c0,1.125-0.913,2.039-2.041,2.039c-1.129,0-2.041-0.914-2.041-2.039C36.81,8.913,37.722,8,38.851,8  C39.979,8,40.891,8.913,40.891,10.042z"></path><path xmlns="http://www.w3.org/2000/svg" d="M31.988,33.898c-2.725,0-4.955,2.034-5.31,4.662c-0.332,0.294-0.656,0.604-0.963,0.947  c-3.261,3.657-4.672,9.706-4.025,17.112c-2.639,1.149-4.781,6.55-0.225,9.728c-0.37-1.668,0.414-5.089,2.825-5.459  c1.671-0.466,4.36,0.927,4.36,4.265c1.998-2.003,2.627-8.841-1.412-8.95c-0.475-5.302,0.271-9.674,2.079-12.281  c0.79,0.455,1.694,0.735,2.67,0.735c2.968,0,5.379-2.407,5.379-5.378C37.367,36.307,34.956,33.898,31.988,33.898z"></path><path xmlns="http://www.w3.org/2000/svg" d="M79.642,58.062c-0.135-10.955-3.369-17.285-7.252-20.211c-0.629-2.273-2.688-3.952-5.158-3.952  c-2.977,0-5.384,2.409-5.384,5.38c0,2.971,2.407,5.378,5.384,5.378c1.179,0,2.26-0.391,3.146-1.035  c1.818,2.248,3.479,6.458,3.684,13.647c-4.865-0.204-5.679,7.021-1.008,9.547c-0.392-3.283,0.854-5.373,2.803-5.649  c2.686,0.092,2.591,4.517,2.411,5.935C83.041,64.24,82.937,59.44,79.642,58.062z"></path><path xmlns="http://www.w3.org/2000/svg" d="M37.37,28.908c2.084-1.392,6.401-1.89,8.813-0.808c0.504,0.226,0.818,0.069,0.695-0.469  c-1.414-6.17-9.97-5.037-10.282,0.934C36.567,29.116,36.911,29.214,37.37,28.908z"></path><path xmlns="http://www.w3.org/2000/svg" d="M52.7,28.204c2.279-1.041,6.619-0.842,8.826,0.612c0.461,0.304,0.796,0.2,0.761-0.351  c-0.407-6.319-9.036-6.565-10.297-0.723C51.874,28.282,52.197,28.433,52.7,28.204z"></path><ellipse xmlns="http://www.w3.org/2000/svg" cx="50" cy="89.5" rx="14" ry="2.5"></ellipse></g><g id="SvgjsG1819" featurekey="J3GnXt-0" transform="matrix(2.4996130497812503,0,0,2.4996130497812503,79.9500083826349,17.801888031009486)" fill="#ffffff"><path d="M8 5.84 l6.06 14.16 l-2.24 0 l-1.42 -3.5 l-6.74 0 l-1.4 3.5 l-2.24 0 l6.24 -14.16 l1.74 0 z M4.34 14.82 l5.36 0 l-2.64 -6.5 l-0.04 0 z M17.82 5.84 l0 14.16 l-1.92 0 l0 -14.16 l1.92 0 z M33.52 5.48 c1 0 1.9367 0.18664 2.81 0.55998 s1.59 0.92 2.15 1.64 l-1.6 1.22 c-0.86666 -1.08 -2.0066 -1.62 -3.42 -1.62 c-1.5333 0 -2.7966 0.54666 -3.79 1.64 s-1.49 2.4666 -1.49 4.12 c0 1.6 0.49 2.92 1.47 3.96 s2.25 1.56 3.81 1.56 s2.7934 -0.63334 3.7 -1.9 l1.62 1.22 c-0.56 0.74666 -1.3067 1.3467 -2.24 1.8 s-1.9733 0.68 -3.12 0.68 c-1.36 0 -2.5934 -0.33 -3.7 -0.99 s-1.98 -1.5667 -2.62 -2.72 s-0.96 -2.3634 -0.96 -3.63 c0 -2.1866 0.68666 -3.99 2.06 -5.41 s3.1466 -2.13 5.32 -2.13 z M42.44 4.880000000000001 l0.000019531 7.1 l0.04 0 c0.25334 -0.53334 0.66334 -0.95 1.23 -1.25 s1.1967 -0.45 1.89 -0.45 c1.0533 0 1.89 0.32 2.51 0.96 s0.93 1.5 0.93 2.58 l0 6.18 l-1.8 0 l0 -5.66 c0 -0.73334 -0.19 -1.3133 -0.57 -1.74 s-0.91 -0.64 -1.59 -0.64 c-0.84 0 -1.4867 0.27334 -1.94 0.82 s-0.68668 1.3 -0.70002 2.26 l0 4.96 l-1.8 0 l0 -15.12 l1.8 0 z M55.56 10.28 c1.2 0 2.15 0.27328 2.85 0.81994 s1.07 1.3067 1.11 2.28 l0 5.08 c0 0.48 0.02666 0.99334 0.08 1.54 l-1.6 0 c-0.04 -0.42666 -0.06 -0.90666 -0.06 -1.44 l-0.04 0 c-0.41334 0.61334 -0.89 1.0467 -1.43 1.3 s-1.17 0.38 -1.89 0.38 c-0.97334 0 -1.7633 -0.26 -2.37 -0.78 s-0.91 -1.2067 -0.91 -2.06 c0 -1.08 0.45334 -1.8967 1.36 -2.45 s2.1866 -0.83 3.84 -0.83 l1.34 0 l0 -0.34 c0 -0.64 -0.21 -1.1433 -0.63 -1.51 s-0.97 -0.55 -1.65 -0.55 c-0.50666 0 -0.95 0.07666 -1.33 0.23 s-0.83 0.43668 -1.35 0.85002 l-1.08 -1.12 c1.0267 -0.90666 2.28 -1.3733 3.76 -1.4 z M53.10000000000001 17.259999999999998 c0 1.0267 0.68002 1.54 2.04 1.54 c0.81334 0 1.4633 -0.24334 1.95 -0.73 s0.73666 -1.19 0.75 -2.11 l0 -0.52 l-1.02 0 c-1.1733 0 -2.0866 0.15 -2.74 0.45 s-0.98 0.75666 -0.98 1.37 z M64.64000000000001 7.859999999999999 l-0.000019531 2.66 l2.58 0 l0 1.56 l-2.58 0 l0 4.56 c0 0.61334 0.08666 1.0867 0.26 1.42 s0.54 0.5 1.1 0.5 c0.53334 0 0.96 -0.09334 1.28 -0.28 l0 1.64 c-0.34666 0.18666 -0.89332 0.29332 -1.64 0.31998 c-0.72 0 -1.2767 -0.11 -1.67 -0.33 s-0.68 -0.52666 -0.86 -0.92 s-0.27 -1.01 -0.27 -1.85 l0 -5.06 l-2.08 0 l0 -1.56 l2.08 0 l0 -2.66 l1.8 0 z M70.48 10.52 l2.84 7.26 l2.72 -7.26 l1.92 0 l-3.72 9.48 l-1.98 0 l-3.86 -9.48 l2.08 0 z M83.88000000000001 10.28 c1.4533 0 2.5834 0.45664 3.39 1.37 s1.2167 2.17 1.23 3.77 l0 0.5 l-7.6 0 c0 0.77334 0.31 1.4233 0.93 1.95 s1.3767 0.79666 2.27 0.81 c0.98666 0 1.8533 -0.47334 2.6 -1.42 l1.36 1.04 c-1.0133 1.2933 -2.4134 1.94 -4.2 1.94 c-1.4533 0 -2.6234 -0.46334 -3.51 -1.39 s-1.3433 -2.1234 -1.37 -3.59 c0 -1.4133 0.45666 -2.59 1.37 -3.53 s2.09 -1.4233 3.53 -1.45 z M86.58000000000001 14.48 c-0.02666 -0.89334 -0.28 -1.5767 -0.76 -2.05 s-1.14 -0.71 -1.98 -0.71 c-0.56 0 -1.0633 0.13666 -1.51 0.41 s-0.79666 0.62668 -1.05 1.06 s-0.38 0.86334 -0.38 1.29 l5.68 0 z M95.34000000000002 10.28 c0.33334 0 0.6 0.04 0.8 0.12 l-0.08 1.94 c-0.34666 -0.09334 -0.64666 -0.14 -0.9 -0.14 c-1.7733 0 -2.6734 0.98666 -2.7 2.96 l0 4.84 l-1.8 0 l0 -9.48 l1.8 0 l0 1.46 l0.04 0 c0.24 -0.50666 0.62666 -0.91666 1.16 -1.23 s1.0933 -0.47 1.68 -0.47 z M101.26000000000002 10.28 c0.72 0 1.3633 0.13338 1.93 0.40004 s1.0033 0.65332 1.31 1.16 l-1.4 1.06 c-0.53334 -0.62666 -1.18 -0.94 -1.94 -0.94 c-0.45334 0 -0.83 0.1 -1.13 0.3 s-0.45 0.45334 -0.45 0.76 c0 0.66666 0.62 1.12 1.86 1.36 c1.2133 0.22666 2.07 0.56 2.57 1 s0.75 1.0667 0.75 1.88 c0 0.92 -0.35 1.6433 -1.05 2.17 s-1.6367 0.79666 -2.81 0.81 c-0.88 0 -1.6033 -0.13666 -2.17 -0.41 s-1.0567 -0.69668 -1.47 -1.27 l1.36 -1.12 c0.72 0.74666 1.4867 1.12 2.3 1.12 c0.53334 0 0.98668 -0.10666 1.36 -0.32 s0.56 -0.50668 0.56 -0.88002 c0 -0.65334 -0.6 -1.1067 -1.8 -1.36 c-1.3333 -0.26666 -2.23 -0.62332 -2.69 -1.07 s-0.69 -1.0233 -0.69 -1.73 c0 -0.88 0.34 -1.5833 1.02 -2.11 s1.54 -0.79666 2.58 -0.81 z M111.28000000000002 10.28 c1.4533 0 2.5834 0.45664 3.39 1.37 s1.2167 2.17 1.23 3.77 l0 0.5 l-7.6 0 c0 0.77334 0.31 1.4233 0.93 1.95 s1.3767 0.79666 2.27 0.81 c0.98666 0 1.8533 -0.47334 2.6 -1.42 l1.36 1.04 c-1.0133 1.2933 -2.4134 1.94 -4.2 1.94 c-1.4533 0 -2.6234 -0.46334 -3.51 -1.39 s-1.3433 -2.1234 -1.37 -3.59 c0 -1.4133 0.45666 -2.59 1.37 -3.53 s2.09 -1.4233 3.53 -1.45 z M113.98000000000002 14.48 c-0.02666 -0.89334 -0.28 -1.5767 -0.76 -2.05 s-1.14 -0.71 -1.98 -0.71 c-0.56 0 -1.0633 0.13666 -1.51 0.41 s-0.79666 0.62668 -1.05 1.06 s-0.38 0.86334 -0.38 1.29 l5.68 0 z"></path></g></svg>